<?xml version="1.0" encoding="UTF-8" standalone="no"?>
<!-- Uploaded to: SVG Repo, www.svgrepo.com, Generator: SVG Repo Mixer Tools -->

<svg
   fill="#000000"
   width="680.31494"
   height="396.85037"
   viewBox="0 0 20.409448 11.905511"
   id="sunset-5"
   data-name="Line Color"
   class="icon line-color"
   version="1.1"
   sodipodi:docname="sunset-5-svgrepo-com.svg"
   inkscape:export-filename="sunset.svg"
   inkscape:export-xdpi="87.44857"
   inkscape:export-ydpi="87.44857"
   xmlns:inkscape="http://www.inkscape.org/namespaces/inkscape"
   xmlns:sodipodi="http://sodipodi.sourceforge.net/DTD/sodipodi-0.dtd"
   xmlns="http://www.w3.org/2000/svg"
   xmlns:svg="http://www.w3.org/2000/svg">
  <defs
     id="defs189" />
  <sodipodi:namedview
     id="namedview187"
     pagecolor="#505050"
     bordercolor="#eeeeee"
     borderopacity="1"
     inkscape:showpageshadow="0"
     inkscape:pageopacity="0"
     inkscape:pagecheckerboard="0"
     inkscape:deskcolor="#505050"
     showgrid="false" />
  <path
     id="primary"
     d="m 15.472159,6.6804168 a 5.144014,5.144014 0 0 1 -2.062084,3.041615 L 5.9610204,7.9914728 a 5.144014,5.144014 0 1 1 9.5111386,-1.311056 z"
     style="fill:#ffa500;fill-opacity:1;stroke:none;stroke-width:1.71467;stroke-linecap:round;stroke-linejoin:round;stroke-opacity:1" />
  <path
     style="color:#000000;fill:#5899ff;fill-opacity:1;stroke:#ffffff;stroke-width:0.571972;stroke-linecap:round;stroke-linejoin:round;stroke-dasharray:none;stroke-opacity:1"
     d="m 17.070057,6.7387008 a 0.84000042,1.329093 0 0 0 -0.634376,0.164408 c -2.232687,2.189191 -4.018847,1.648761 -6.041603,0.915049 -2.0227564,-0.733712 -4.30532,-1.762838 -6.6841832,0.328812 a 0.84000042,1.329093 0 0 0 -0.326758,1.806303 0.84000042,1.329093 0 0 0 1.141602,0.5170152 c 1.7861178,-1.5704712 3.4135034,-0.8154912 5.4947292,-0.06058 2.081226,0.754921 4.59235,1.407482 7.300784,-1.2481862 a 0.84000042,1.329093 0 0 0 0.27207,-1.830099 0.84000042,1.329093 0 0 0 -0.522265,-0.592729 z"
     id="path12788" />
</svg>
