<?xml version="1.0" encoding="UTF-8" standalone="no"?>
<!-- Uploaded to: SVG Repo, www.svgrepo.com, Generator: SVG Repo Mixer Tools -->

<svg
   fill="#000000"
   version="1.1"
   id="Capa_1"
   width="800"
   height="800"
   viewBox="0 0 413.099 413.099"
   xml:space="preserve"
   xmlns="http://www.w3.org/2000/svg"
   xmlns:svg="http://www.w3.org/2000/svg"><defs
   id="defs363" />
<g
   id="g358"
   style="fill:#de0000;fill-opacity:1">
	<g
   id="g356"
   style="fill:#de0000;fill-opacity:1">
		<path
   d="m 206.549,0 v 0 c -82.6,0 -149.3,66.7 -149.3,149.3 0,28.8 9.2,56.3 22,78.899 l 97.3,168.399 c 6.1,11 18.4,16.5 30,16.5 11.601,0 23.3,-5.5 30,-16.5 l 97.3,-168.299 c 12.9,-22.601 22,-49.601 22,-78.901 C 355.849,66.8 289.149,0 206.549,0 Z m 0,193.4 c -30,0 -54.5,-24.5 -54.5,-54.5 0,-30 24.5,-54.5 54.5,-54.5 30,0 54.5,24.5 54.5,54.5 0,30.1 -24.5,54.5 -54.5,54.5 z"
   id="path354"
   style="fill:#de0000;fill-opacity:1" />
	</g>
</g>
</svg>
